<?xml version="1.0" standalone="no"?>
<!DOCTYPE svg PUBLIC "-//W3C//DTD SVG 1.1//EN" "http://www.w3.org/Graphics/SVG/1.1/DTD/svg11.dtd" >
<svg xmlns="http://www.w3.org/2000/svg">
<metadata>
Created by FontForge 20120731 at Sun May  7 10:58:25 2017
 By admin
</metadata>
<defs>
<font id="iconfont" horiz-adv-x="1024" >
  <font-face 
    font-family="iconfont"
    font-weight="500"
    font-stretch="normal"
    units-per-em="1024"
    panose-1="2 0 6 3 0 0 0 0 0 0"
    ascent="896"
    descent="-128"
    x-height="792"
    bbox="0 -224 1047 896"
    underline-thickness="0"
    underline-position="0"
    unicode-range="U+0078-E88F"
  />
<missing-glyph 
 />
    <glyph glyph-name=".notdef" 
 />
    <glyph glyph-name=".notdef" 
 />
    <glyph glyph-name=".null" horiz-adv-x="0" 
 />
    <glyph glyph-name="nonmarkingreturn" horiz-adv-x="341" 
 />
    <glyph glyph-name="x" unicode="x" horiz-adv-x="1001" 
d="M281 543q-27 -1 -53 -1h-83q-18 0 -36.5 -6t-32.5 -18.5t-23 -32t-9 -45.5v-76h912v41q0 16 -0.5 30t-0.5 18q0 13 -5 29t-17 29.5t-31.5 22.5t-49.5 9h-133v-97h-438v97zM955 310v-52q0 -23 0.5 -52t0.5 -58t-10.5 -47.5t-26 -30t-33 -16t-31.5 -4.5q-14 -1 -29.5 -0.5
t-29.5 0.5h-32l-45 128h-439l-44 -128h-29h-34q-20 0 -45 1q-25 0 -41 9.5t-25.5 23t-13.5 29.5t-4 30v167h911zM163 247q-12 0 -21 -8.5t-9 -21.5t9 -21.5t21 -8.5q13 0 22 8.5t9 21.5t-9 21.5t-22 8.5zM316 123q-8 -26 -14 -48q-5 -19 -10.5 -37t-7.5 -25t-3 -15t1 -14.5
t9.5 -10.5t21.5 -4h37h67h81h80h64h36q23 0 34 12t2 38q-5 13 -9.5 30.5t-9.5 34.5q-5 19 -11 39h-368zM336 498v228q0 11 2.5 23t10 21.5t20.5 15.5t34 6h188q31 0 51.5 -14.5t20.5 -52.5v-227h-327z" />
    <glyph glyph-name="fuwuzhongxin04" unicode="&#xe613;" 
d="M512 -212q-104 0 -199 40q-92 39 -162.5 110t-109.5 162q-40 96 -40 200t40 199q39 92 109.5 162.5t162.5 109.5q95 40 199 40t199 -40q92 -39 163 -109.5t110 -162.5q40 -95 40 -199t-40 -200q-39 -91 -110 -162t-163 -110q-95 -40 -199 -40zM512.5 750
q-91.5 0 -175 -35.5t-144 -96t-96 -144t-35.5 -175t35.5 -175t96 -143.5t144 -96t175 -36t174.5 36t143.5 96t96.5 143.5t36 175t-36 175t-96.5 144t-143.5 96t-174.5 35.5zM334 380zM241 338zM786 270q1 38 -29 63q-20 17 -49 22q-4 1 -18 3q-34 4 -51 9q-20 6 -25 14
q-2 19 2.5 31.5t11 19t22.5 17.5q16 12 25 19.5t19.5 26t11.5 41.5q1 36 -24 63q-39 40 -119 40q-56 0 -103 -20v0q-92 -41 -108 -126q-9 -45 9 -120q2 -9 3 -13q-22 -3 -61 -9q-28 -4 -42 -24q-7 -11 -10 -27v-1q-1 -8 -1 -228q1 -35 1 -40q0 -30 27 -46q11 -6 23 -8h2h2
h244h153h1h1q51 2 72 56q9 24 10 47v0q1 157 0 190zM734 81q0 -4 -1 -9.5t-3.5 -16.5t-10 -19t-17.5 -8q-50 1 -153 1q-112 0 -241 -1q-5 1 -6 3v0v40v14h1h202q6 0 10 3.5t4 8.5v29q0 5 -4 8.5t-10 3.5h-202h-2v56q1 -1 2 -1h202q6 0 10 4t4 9v29q0 5 -4 8.5t-10 3.5h-202
h-2q0 38 1 44v1q1 6 2 7t6 2q49 6 81 12q13 2 21 13q6 15 5.5 25t-6.5 34q-15 64 -9 99q11 58 78 88q38 16 83 16q58 0 82 -25q10 -10 9.5 -25.5t-8 -24.5t-26.5 -22q-7 -5 -11 -8t-11 -9t-11 -11t-9.5 -12.5t-8.5 -15.5t-5 -18t-2 -22t2 -25l1 -2v-2q6 -17 19.5 -28.5
t34 -17.5t33 -8.5t32.5 -4.5q9 -1 11 -1l1 -1h2q38 -7 36 -34v-1v-2q2 -29 0 -187z" />
    <glyph glyph-name="xingxing" unicode="&#xe659;" 
d="M485 625q11 23 26.5 23t26.5 -23l64 -135q11 -24 37.5 -43.5t51.5 -23.5l138 -21q26 -4 31 -19.5t-13 -34.5l-101 -104q-19 -18 -29 -49.5t-5 -57.5l24 -149q4 -26 -9 -35t-36 3l-124 69q-23 12 -55.5 12t-54.5 -12l-125 -69q-23 -12 -36 -3t-9 35l25 149q4 26 -6 57.5
t-28 49.5l-102 104q-18 19 -12.5 34.5t30.5 19.5l138 21q26 4 52 23.5t37 43.5z" />
    <glyph glyph-name="check" unicode="&#xe649;" 
d="M512 -92q-97 0 -185.5 38t-152.5 102t-101.5 152t-37.5 185.5t37.5 186t101.5 152t152.5 101.5t185.5 38t185.5 -38t152.5 -101.5t101.5 -152t37.5 -186t-37.5 -185.5t-101.5 -152t-152.5 -102t-185.5 -38zM715 568l-287 -287l-119 119l-50 -51l169 -169l337 338z" />
    <glyph glyph-name="shuaxin" unicode="&#xe610;" 
d="M815 115l145 211h-102q-7 103 -61.5 188t-143 134.5t-192.5 49.5q-108 0 -199.5 -53.5t-144.5 -145t-53 -199.5t53 -199.5t145 -145t200 -53.5q146 0 258 96l-54 68q-88 -77 -204 -77q-129 0 -220 91t-91 220t91 220t220 91q121 0 210 -82.5t99 -202.5h-100l144 -211v0z
" />
    <glyph glyph-name="icon-liebiao" unicode="&#xe618;" 
d="M64 650q0 -17 12 -29t29 -12h46q17 0 29 12t12 29v46q0 17 -12 29t-29 12h-46q-17 0 -29 -12t-12 -29v-46zM284 693q-9 0 -15 -6t-6 -14v0q0 -9 6 -15t15 -6h655q8 0 14 6t6 15v0q0 8 -6 14t-14 6h-655zM64 266q0 -17 12 -29t29 -12h46q17 0 29 12t12 29v46
q0 16 -12 28.5t-29 12.5h-46q-17 0 -29 -12.5t-12 -28.5v-46zM263 289q0 -9 6 -15t15 -6h655q8 0 14 6t6 15v0q0 8 -6 14t-14 6h-655q-9 0 -15 -6t-6 -14v0zM64 -119q0 -17 12 -29t29 -12h46q17 0 29 12t12 29v46q0 17 -12 29t-29 12h-46q-17 0 -29 -12t-12 -29v-46z
M263 -96q0 -8 6 -14t15 -6h655q8 0 14 6t6 14v0q0 8 -6 14t-14 6h-655q-9 0 -15 -6t-6 -14v0z" />
    <glyph glyph-name="imgreviewures2x1" unicode="&#xe639;" 
d="M512 -224q-139 0 -257 68.5t-186.5 186.5t-68.5 257t68.5 257t186.5 186.5t257 68.5t257 -68.5t186.5 -186.5t68.5 -257t-68.5 -257t-186.5 -186.5t-257 -68.5zM793 -77q-36 83 -112 134.5t-169 51.5t-169 -51t-112 -134q124 -97 281 -97t281 96zM666 339.5
q0 63.5 -45 108.5t-109 45t-109 -45t-45 -108.5t45 -108.5t109 -45t109 45t45 108.5zM512 749q-94 0 -179 -36.5t-147 -98.5t-98.5 -147t-36.5 -179q0 -95 37 -180.5t102 -149.5q36 73 99.5 124t142.5 69q-56 23 -90.5 74.5t-34.5 113.5q0 85 60 145t145 60t145 -60t60 -145
q0 -62 -34.5 -113.5t-90.5 -74.5q79 -18 142.5 -69t98.5 -124q66 64 103 149.5t37 180.5q0 94 -36.5 179t-98.5 147t-147 98.5t-179 36.5z" />
    <glyph glyph-name="youhui" unicode="&#xe60b;" 
d="M333 194l31 -12q-22 -53 -45 -91q-14 9 -30 17q25 38 44 86zM622 260l24 18q47 -39 83 -73l-27 -21q-17 18 -35 35q-117 -2 -367 -9l-2 33q101 0 197 1v36h-130v-11h-31v150h161v31h-197v29h197v38h32v-38h197v-29h-197v-31h161v-139h-161v-36q57 0 112 1q-11 9 -17 15z
M365 362h130v31h-130v-31zM365 306h130v31h-130v-31zM397 193h34v-50q0 -27 31 -27h95q31 0 36 20q4 18 5 44q6 -2 34 -14q-3 -24 -8 -43q-8 -39 -61 -39h-109q-57 0 -57 56v53zM476 194l24 18q33 -30 53 -54l-27 -21q-22 28 -50 57zM656 393h-129v-31h129v31zM656 306v31
h-129v-31h129zM648 170l25 19q25 -27 60 -71l-28 -20q-22 30 -57 72zM867 29q91 120 91 270q0 91 -35.5 174t-95.5 142.5t-142.5 95t-173.5 35.5t-174 -35.5t-143 -95t-95 -142.5t-35 -174t35 -173.5t95 -142.5t143 -95.5t174 -35.5q139 0 254 79l-1 1q12 9 12 25
q0 13 -9 22.5t-23 9.5t-24 -11v0q-95 -62 -209 -62q-104 0 -192.5 51.5t-139.5 140t-51 192.5t51 192.5t139.5 139.5t192.5 51t192.5 -51t140 -139.5t51.5 -192.5q0 -129 -78 -232q-11 -9 -11 -24q0 -13 9.5 -22.5t22.5 -9.5t22 8v0v0q4 4 7 9z" />
    <glyph glyph-name="yiwen" unicode="&#xe7ab;" 
d="M464 28q0 20 14 34t34 14t34 -14t14 -34t-14 -34t-34 -14t-34 14t-14 34zM512 -148q-91 0 -174 35.5t-143 95.5t-95.5 143t-35.5 174t35.5 174t95.5 143t143 95.5t174 35.5t174 -35.5t143 -95.5t95.5 -143t35.5 -174t-35.5 -174t-95.5 -143t-143 -95.5t-174 -35.5z
M512 684q-104 0 -192.5 -51.5t-140 -140t-51.5 -192.5t51.5 -192.5t140 -140t192.5 -51.5t192.5 51.5t140 140t51.5 192.5t-51.5 192.5t-140 140t-192.5 51.5zM512 138q-13 0 -22.5 9.5t-9.5 22.5v54q0 25 13 50t25.5 39.5t36.5 38.5q18 17 26.5 26.5t17.5 23.5t9 24
q0 40 -28 68.5t-68 28.5t-68 -27.5t-28 -67.5q0 -13 -9.5 -22.5t-22.5 -9.5t-22.5 9.5t-9.5 22.5q0 66 47 112.5t113 46.5t113 -47.5t47 -113.5q0 -22 -12 -45.5t-24 -37t-35 -36.5q-19 -19 -28.5 -29t-19 -25.5t-9.5 -28.5v-54q0 -13 -9.5 -22.5t-22.5 -9.5z" />
    <glyph glyph-name="icon32212" unicode="&#xe611;" 
d="M509 111q0 35 35 35t35 -35t-35 -35t-35 35zM576 412l-10 -211q0 -19 -22 -19q-11 0 -16.5 5.5t-5.5 13.5l-10 211q0 29 32 29t32 -29zM528 604q-139 0 -237.5 -98.5t-98.5 -237.5t98.5 -237.5t237.5 -98.5t237.5 98.5t98.5 237.5t-98.5 237.5t-237.5 98.5zM528 -36
q-125 0 -214.5 89.5t-89.5 214.5t89.5 214.5t214.5 89.5t214.5 -89.5t89.5 -214.5t-88.5 -214.5t-215.5 -89.5z" />
    <glyph glyph-name="icon203" unicode="&#xe60a;" 
d="M829 542q1 2 1 8v38.5v38.5q0 15 10 26t25 12t25.5 -9t12.5 -25q1 -6 1 -13v-243q0 -23 -17.5 -34.5t-36.5 -1.5q-15 8 -19 26q-22 104 -99 175q-76 70 -177 83q-102 14 -188 -31q-151 -78 -177 -243q-19 -123 50 -228t190 -135q163 -41 293 67q65 54 95 137q1 3 2 7
q1 14 11 24t24 10q16 0 27 -9t13 -24q1 -11 -2 -19q-24 -63 -48 -99q-101 -147 -271 -174q-182 -27 -322 92q-111 96 -133 240q-27 175 84 312q96 121 248 144q174 26 314 -85q32 -26 61 -62z" />
    <glyph glyph-name="aixin" unicode="&#xe61f;" 
d="M750 708q-80 0 -145 -44.5t-93 -116.5q-29 72 -94 116.5t-145 44.5q-106 0 -181.5 -75t-75.5 -181q0 -116 94 -202l402 -391l244 235q63 57 110 106l47 44q43 40 68.5 94.5t25.5 113.5q0 106 -75.5 181t-181.5 75z" />
    <glyph glyph-name="jinggao" unicode="&#xe60c;" 
d="M480 556v-384h64v384h-64zM480 108v-64h64v64h-64zM0 300q0 -139 68.5 -257t186.5 -186.5t257 -68.5t257 68.5t186.5 186.5t68.5 257t-68.5 257t-186.5 186.5t-257 68.5t-257 -68.5t-186.5 -186.5t-68.5 -257zM64 300q0 122 60 225t163 163t225 60t225 -60t163 -163
t60 -225t-60 -225t-163 -163t-225 -60t-225 60t-163 163t-60 225z" />
    <glyph glyph-name="check1" unicode="&#xe88f;" 
d="M829 701q-64 63 -145.5 97t-171.5 34t-171.5 -34t-145 -97.5t-97.5 -145t-34 -171.5t34 -171.5t97.5 -145t145 -97.5t171.5 -34t171.5 34t145 97.5t97.5 145t34 171.5t-34 171.5t-97 145.5v0zM758 515l-305 -305v0h-0.5h-0.5q-8 -9 -21 -9q-4 0 -8 1v0l-4 2q-5 2 -9 6v0
l-144 144q-9 9 -9 21.5t9 21.5t21.5 9t20.5 -9l123 -123l284 284q9 9 21.5 9t21.5 -9t9 -21.5t-9 -21.5v0zM758 515z" />
    <glyph glyph-name="xingxing1" unicode="&#xe626;" 
d="M740 -5q-6 0 -11 3l-217 126l-217 -126q-12 -7 -22.5 0.5t-8.5 20.5l47 258l-182 179q-9 9 -5 21.5t17 13.5l247 33l105 237q6 12 19 12t19 -12l106 -237l246 -33q13 -1 17 -13.5t-5 -21.5l-182 -179l47 -258q2 -13 -9 -20q-5 -4 -11 -4zM512.5 168q5.5 0 9.5 -3
l190 -110l-41 225q-2 11 5 19l160 157l-216 29q-12 1 -16 12l-92 205l-92 -205q-4 -11 -16 -12l-216 -29l160 -157q7 -8 5 -19l-40 -225l189 110q5 3 10.5 3z" />
    <glyph glyph-name="chongzhishibai" unicode="&#xe640;" 
d="M511 896q-104 0 -198.5 -40.5t-162.5 -109t-108.5 -163t-40.5 -198.5t40.5 -198.5t108.5 -162.5t162.5 -108.5t198.5 -40.5t198.5 40.5t163 108.5t109 162.5t40.5 198.5t-40.5 198.5t-109 163t-163 109t-198.5 40.5zM720 206q10 -10 10.5 -24.5t-9.5 -24.5l-10 -9
q-10 -10 -24 -10t-24 10l-152 152l-152 -151q-10 -10 -24 -10.5t-24 9.5l-10 10q-10 10 -10 24t11 24l152 152l-152 152q-10 10 -10 24t10 24l10 10q10 10 24 10t24 -10l151 -153l152 152q10 10 24.5 10t24.5 -10l9 -10q10 -10 10 -24t-10 -24l-152 -151z" />
    <glyph glyph-name="anquan" unicode="&#xe673;" 
d="M725 99h-422q-15 0 -25.5 10t-10.5 25v299q0 14 10.5 24.5t25.5 10.5h52v35q0 77 41 118t118 41v0q76 0 117 -41t41 -118v-35h53q14 0 24.5 -10.5t10.5 -24.5v-299q0 -15 -10.5 -25t-24.5 -10v0zM637 503q0 123 -123 123v0q-123 0 -123 -123v-35h246v35v0zM725 415
q0 8 -5 13t-13 5h-387q-8 0 -12.5 -5t-4.5 -13v-264q0 -8 4.5 -12.5t12.5 -4.5h387q8 0 13 4.5t5 12.5v264v0zM531 241v-63q0 -9 -8 -9h-18q-9 0 -9 9v63q-53 12 -53 69q0 29 21 49.5t50 20.5t49.5 -20.5t20.5 -49.5q0 -57 -53 -69v0zM514 345q-15 0 -25 -10.5t-10 -25
t10 -25t24.5 -10.5t25 10.5t10.5 25t-10.5 25t-24.5 10.5v0zM514 345zM512 896q-139 0 -257 -68.5t-186.5 -186.5t-68.5 -257t68.5 -257t186.5 -186.5t257 -68.5t257 68.5t186.5 186.5t68.5 257t-68.5 257t-186.5 186.5t-257 68.5zM512 -96q-98 0 -186.5 38t-153 102.5
t-102.5 153t-38 186.5t38 186.5t102.5 153t153 102.5t186.5 38t186.5 -38t153 -102.5t102.5 -153t38 -186.5t-38 -186.5t-102.5 -153t-153 -102.5t-186.5 -38z" />
    <glyph glyph-name="xiadanyouhui" unicode="&#xe624;" horiz-adv-x="1026" 
d="M5 436q11 39 11 41q31 153 144.5 262t266.5 135q103 18 204 -5.5t180 -79.5t134.5 -141t72.5 -186q22 -127 -18.5 -246.5t-135 -207t-223.5 -120.5q-135 -35 -266.5 3t-226.5 136t-128 233l-15 59v117zM80 377q0 -118 58 -217.5t158 -157t218 -57.5q119 -1 220 57
t159.5 157.5t58.5 217.5q0 88 -34.5 168.5t-93 138.5t-139.5 92t-170 34q-93 0 -176 -36.5t-140 -96.5t-89 -139t-30 -161zM653 312q1 24 1 27h9t8.5 -0.5t6.5 -2.5q11 -8 72 -60q-18 -32 -38 -6q-15 21 -49 20h-379q-5 8 0 13t19 5q108 0 138 1q7 0 21.5 1t21.5 1q8 1 12 5
t5 8t1 12q0 23 -20 23h-115q-5 0 -10 -2q-26 -11 -30 -8t-4 31v102q-1 14 4.5 19t19.5 5q23 -1 125 -1h6t6.5 0.5t5 1t5 1.5t3.5 3.5t3 6t1 7.5q0 11 -5.5 16.5t-10 6t-15.5 0.5h-151q-16 0 -18 1q-2 0 -19 11q2 1 6 4t7 5t6 2q7 1 61 1q101 0 112 -1q14 0 21 5t7 19
q0 3 1.5 6t5 6.5l5.5 5.5q1 -2 5 -6t6 -7t2 -6q0 -13 6 -18t20 -5q95 2 171 0q3 0 6.5 -2t8.5 -5.5t7 -4.5q-2 -1 -6.5 -4t-8.5 -4.5t-7 -1.5q-25 -1 -81.5 -1t-86.5 -1q-8 0 -16 -4t-10 -9q-6 -13 -0.5 -20.5t21.5 -7.5q92 -1 130 0q15 0 21.5 -5.5t5.5 -20.5q-2 -41 0 -97
q0 -13 -5.5 -18.5t-18.5 -4.5h-64h-64q-15 0 -21.5 -5t-6.5 -20t6.5 -19.5t20.5 -3.5h97zM425 440h56q21 0 21 21q0 23 -21 22q-61 0 -111 1q-22 0 -22 -22q0 -23 21 -22h56zM424 379h58q20 0 20 23q0 20 -20 20h-114q-19 1 -20 -20q0 -23 20 -23h56zM604 440v0h56
q21 0 21 22t-20 21h-112q-20 0 -20 -20q0 -11 4 -17t15 -6h56zM606 379h56q19 0 19 23q0 20 -19 20h-112q-21 1 -21 -21q0 -23 21 -22h27.5h28.5zM617 234q29 0 25 -28q-5 -35 -20 -49t-50 -15q-57 -2 -117 0q-34 1 -47.5 14.5t-14.5 47.5q0 26 1 30t3.5 7.5t6 7.5t5.5 6
q12 -18 13 -20v-25q1 -21 10 -30.5t31 -9.5q23 -1 94 0q31 0 42.5 9.5t15.5 40.5q0 1 2 14zM302 152q-14 7 -27 13q8 16 23 45t22 43q4 -1 12.5 -4.5t14.5 -5.5q-10 -18 -45 -91zM758 177q-19 -12 -26 -17q0 1 -56 71q16 23 31 5q5 -5 51 -59zM533 203q-10 11 -26.5 29.5
t-22.5 25.5q17 14 29 7.5t42 -44.5q-3 -3 -10.5 -9t-11.5 -9z" />
    <glyph glyph-name="anquan1" unicode="&#xe675;" horiz-adv-x="1025" 
d="M512 -128q-104 0 -199 40.5t-163.5 109t-109 163.5t-40.5 199q0 122 54 229.5t152 180.5q7 6 16 4.5t14.5 -8.5t4 -16t-8.5 -14q-90 -67 -139.5 -165.5t-49.5 -210.5q0 -95 37.5 -182t100 -149.5t149.5 -100t182 -37.5t182 37.5t149.5 100t100 149.5t37.5 182t-37.5 182
t-100 149.5t-149.5 100t-182 37.5q-71 0 -138 -21q-9 -3 -17 1.5t-10.5 13t2 16.5t12.5 10q73 23 151 23q104 0 199 -40.5t163.5 -109t109 -163.5t40.5 -199t-40.5 -199t-109 -163.5t-163.5 -109t-199 -40.5zM512 568q99 -11 181 -34v-53v-9q1 -47 1 -83t-4 -65.5t-14 -50.5
q-13 -32 -46.5 -60.5t-97.5 -63.5q-13 -7 -19.5 -7t-18.5 7q-43 24 -70.5 43.5t-46.5 41t-28 44.5t-14 52.5t-4.5 65.5t-0.5 84v11q1 27 1 43q36 10 77 20q47 11 104 14zM513 611h-1q-62 -3 -114 -15q-53 -12 -99 -26q-11 -4 -11 -16q0 -20 -1 -74v-86.5t5 -71t16 -59.5
t32 -52t53.5 -49t79.5 -51q22 -12 39.5 -12t39.5 12q48 26 79.5 48.5t53 46.5t31.5 49.5t15.5 57.5t5.5 71v89q-1 58 -1 81q0 12 -12 16q-96 28 -209 41h-2v0zM630 465l-151 -151l-74 75q-6 6 -15.5 6t-16 -6.5t-6.5 -15.5t7 -16l89 -90q7 -6 16.5 -6t15.5 6l166 167
q7 7 7 16t-6.5 15.5t-16 6.5t-15.5 -7v0z" />
    <glyph glyph-name="yiwen1" unicode="&#xe7cc;" 
d="M512 830q-91 0 -173.5 -35t-142.5 -95t-95 -142.5t-35 -173.5t35 -173.5t95 -142.5t142.5 -95t173.5 -35t173.5 35t142.5 95t95 142.5t35 173.5t-35 173.5t-95 142.5t-142.5 95t-173.5 35zM512 -17q-109 0 -201.5 53.5t-146 146t-53.5 201.5t53.5 201.5t146 146
t201.5 53.5t201.5 -53.5t146 -146t53.5 -201.5t-53.5 -201.5t-146 -146t-201.5 -53.5zM516 622q-30 0 -57 -9.5t-49 -28.5q-20 -18 -31 -47q-11 -26 -12 -75h51q0 52 24.5 82t72.5 30q45 0 66 -22q23 -24 23 -53q0 -30 -14 -45q-10 -10 -45 -46q-31 -33 -40 -49
q-8 -15 -14 -40q-6 -22 -6 -60h52q-1 33 5 52q5 20 16 33q12 15 45 46q33 32 43.5 53.5t10.5 48.5q0 59 -40.5 94.5t-100.5 35.5zM487 221h48v-78h-48v78z" />
    <glyph glyph-name="aixin1" unicode="&#xe634;" 
d="M512 639q-28 64 -73 102.5t-93.5 47.5t-98.5 -7.5t-89.5 -53.5t-64.5 -98.5t-26 -136.5q0 -42 34.5 -97t86 -106.5t112 -105t112 -94.5t86.5 -72.5t35 -41.5l202 210q222 203 222 309q-1 75 -26.5 136t-65.5 97t-90.5 51t-99 6t-93 -47t-70.5 -99z" />
    <glyph glyph-name="liebiao" unicode="&#xe684;" 
d="M448 352h-352q-14 0 -23 -9t-9 -23v-352q0 -14 9 -23t23 -9h352q14 0 23 9t9 23v352q0 14 -9 23t-23 9zM416 0h-288v288h288v-288zM448 832h-352q-14 0 -23 -9t-9 -23v-352q0 -14 9 -23t23 -9h352q14 0 23 9t9 23v352q0 14 -9 23t-23 9zM416 480h-288v288h288v-288z
M928 832h-352q-14 0 -23 -9t-9 -23v-352q0 -14 9 -23t23 -9h352q14 0 23 9t9 23v352q0 14 -9 23t-23 9zM896 480h-288v288h288v-288zM928 352h-352q-14 0 -23 -9t-9 -23v-352q0 -14 9 -23t23 -9h352q14 0 23 9t9 23v352q0 14 -9 23t-23 9zM896 0h-288v288h288v-288z" />
    <glyph glyph-name="caiwu" unicode="&#xe646;" 
d="M512 832q-185 0 -316.5 -131.5t-131.5 -316.5t131.5 -316.5t316.5 -131.5t316.5 131.5t131.5 316.5t-131.5 316.5t-316.5 131.5zM512 -8q-106 0 -196 52.5t-142 142.5t-52 196.5t52 197t142 143t196 52.5t196 -52.5t142 -142.5t52 -197t-52 -197t-142 -142.5t-196 -52.5z
M675.5 636.5q-8.5 8.5 -20.5 8.5t-20 -9l-123 -124l-122 123q-9 9 -21 9t-20.5 -8.5t-8.5 -20.5t9 -21l108 -98h-75q-12 0 -20.5 -8.5t-8.5 -20.5t8.5 -20.5t20.5 -8.5h101v-108h-101q-12 0 -20.5 -8.5t-8.5 -20.5t8.5 -20.5t20.5 -8.5h101v-112q0 -12 8.5 -20.5t20.5 -8.5
t20.5 8.5t8.5 20.5v0v112h101q12 0 20.5 8.5t8.5 20.5v0v0q0 12 -8.5 20.5t-20.5 8.5h-101v108h101q12 0 20.5 8.5t8.5 20.5t-8.5 20.5t-20.5 8.5h-76l110 99q8 9 8 21t-8.5 20.5z" />
    <glyph glyph-name="search" unicode="&#xe601;" 
d="M873 77v0v0v0q10 -12 10 -26q0 -15 -11 -27q-11 -11 -27 -11v0q-7 0 -13 2q-9 3 -16 11v-1l-204 206q-74 -52 -165 -52q-9 0 -19 1q-18 1 -35 6q-56 3 -117 51q-41 24 -77 87q-29 49 -35 109l-1 -1q-2 16 -2 32q0 4 0 3q0 25 5 50q10 67 52 122q10 20 40 44.5t66 40.5
l-10 -3q10 7 41 18q43 16 92 16v0q20 0 38 -3q49 -6 94 -29q73 -39 113 -109l-2 7q11 -12 26 -54q20 -56 18 -113q-4 -95 -66 -171l206 -206h-1v0zM691 455v13q0 46 -18 88q-19 53 -61 91q-8 7 0 -1q-5 5 -10 9q-47 40 -108 52q-15 3 0 1q-24 3 -45 3q-15 0 -30 -2
q-2 0 -6 -1h-5q-66 -11 -116 -53q-19 -12 -39.5 -41t-32.5 -64q-1 3 -3 -3q-10 -24 -12 -69q-3 -62 23 -115q31 -69 97 -106q0 -3 12 -9.5t34 -13t44 -9.5q1 -2 11.5 -2.5t28 0t33.5 3.5q46 8 84 31q7 2 27 18.5t37 37.5l-1 -4q12 11 33 53q2 3 3 7l-14 -26q4 7 8 15v0
q25 48 26 104v-7z" />
    <glyph glyph-name="error" unicode="&#xe743;" 
d="M512 832q-185 0 -316.5 -131.5t-131.5 -316.5t131.5 -316.5t316.5 -131.5t316.5 131.5t131.5 316.5t-131.5 316.5t-316.5 131.5zM695 246q9 -9 9 -22.5t-9.5 -23t-22.5 -9.5v0q-13 0 -23 10l-137 138l-138 -137q-10 -9 -23 -9v0q-13 0 -22.5 9.5t-9.5 22.5t10 23l138 136
l-138 138q-9 9 -9 22.5t9.5 23t22.5 9.5t23 -10l137 -138l138 137q10 9 23 9t22.5 -9.5t9.5 -22.5t-10 -23l-138 -136z" />
    <glyph glyph-name="error1" unicode="&#xe600;" 
d="M512 896q-139 0 -257 -68.5t-186.5 -186.5t-68.5 -257t68.5 -257t186.5 -186.5t257 -68.5t257 68.5t186.5 186.5t68.5 257t-68.5 257t-186.5 186.5t-257 68.5zM740 216q11 -12 11 -29q0 -18 -12 -30t-30 -12q-17 0 -29 11l-168 168l-168 -168q-12 -11 -29 -11
q-18 0 -30 12t-12 30q0 17 11 29l168 168l-168 168q-11 12 -11 29q0 18 12 30t30 12q17 0 29 -11l168 -168l168 168q12 11 29 11q18 0 30 -12t12 -30q0 -17 -11 -29l-168 -168z" />
    <glyph glyph-name="shouye_shouye" unicode="&#xe683;" 
d="M892 340h132l-505 483l-519 -476h132v-402h307v293h146v-293h315z" />
    <glyph glyph-name="tuiguangbaobiao" unicode="&#xe638;" horiz-adv-x="1047" 
d="M319 302q-5 -7 -14 -7q-6 0 -10 4l-147 110q-3 -1 -5 -1q-8 0 -13 5t-5 12.5t5 12.5t13 5q5 0 10 -4l667 220q3 1 6 1q7 0 12 -5q8 -8 4 -18l-187 -565q-3 -9 -11 -11q-3 -1 -6 -1q-5 0 -10 3l-153 112l-88 -109q-6 -6 -14 -6q-7 0 -12 5t-5 12v184q0 8 6 13l333 267
q5 4 11 4q8 0 13 -7q4 -5 4 -11q0 -8 -6 -14l-326 -260v-127l67 84q6 7 14 7q6 0 10 -4l147 -108l169 510l-602 -198l120 -90q5 -5 6 -12t-3 -13zM523.5 -128q-106.5 0 -203.5 41.5t-167 111t-111.5 166t-41.5 202.5q0 173 105 312.5t271 187.5q3 1 5 1q7 0 12 -5t5 -12
q0 -13 -12 -16q-155 -46 -253.5 -176.5t-98.5 -291.5q0 -99 39 -189t104.5 -155.5t156 -104t190 -38.5t190 38.5t156 104t104.5 155.5t39 189q0 161 -94.5 289t-248.5 176q-12 4 -12 16q0 3 1 5q4 12 17 12q2 0 5 -1q164 -51 265 -188t101 -309q0 -106 -41.5 -202.5
t-111.5 -166t-167 -111t-203.5 -41.5z" />
    <glyph glyph-name="shouye_shouye1" unicode="&#xe602;" 
d="M882 340h128l-491 470l-505 -463h128v-391h299v284h142v-284h306z" />
  </font>
</defs>
</svg>
